<svg xmlns="http://www.w3.org/2000/svg" width="278.843" height="266.33" viewBox="0 0 278.843 266.33"><defs><style>.a{fill:#a5beba;opacity:0.16;}</style></defs><path class="a" d="M108.716,113.537c-33.725,0-81.54,52.135-81.54,85.045,0,14.822,11.386,23.677,30.467,23.677,20.742,0,34.438-10.651,51.073-10.651,16.779,0,30.514,10.651,51.073,10.651,19.081,0,30.467-8.855,30.467-23.677C190.256,165.672,142.441,113.537,108.716,113.537Zm-62.548-5.355c-4.417-14.716-18.024-24.246-30.391-21.29s-18.809,17.281-14.393,32,18.024,24.246,30.391,21.29S50.585,122.9,46.168,108.181Zm35.98-8.825c13.14-3.457,19.714-21.209,14.686-39.649s-19.757-30.582-32.9-27.125S44.223,53.791,49.251,72.231,69.012,102.818,82.147,99.356Zm119.5-12.46c-12.367-2.956-25.97,6.574-30.391,21.29s2.026,29.04,14.393,32,25.97-6.574,30.391-21.29S214.018,89.852,201.651,86.9Zm-66.366,12.46c13.14,3.457,27.868-8.685,32.9-27.125S166.635,36.043,153.5,32.582s-27.868,8.685-32.9,27.125S122.145,95.9,135.285,99.356Z" transform="translate(97.438 -28.751) rotate(26)"/></svg>